<svg xmlns="http://www.w3.org/2000/svg" viewBox="0 0 512 512">
  <defs>
    <linearGradient id="bg" x1="0%" y1="0%" x2="100%" y2="100%">
      <stop offset="0%" style="stop-color:#7C3AED"/>
      <stop offset="100%" style="stop-color:#2563EB"/>
    </linearGradient>
    <linearGradient id="star" x1="0%" y1="0%" x2="100%" y2="100%">
      <stop offset="0%" style="stop-color:#ffffff"/>
      <stop offset="100%" style="stop-color:#e0d7ff"/>
    </linearGradient>
  </defs>
  <!-- Background rounded square -->
  <rect width="512" height="512" rx="120" ry="120" fill="url(#bg)"/>
  <!-- 4-point star shape -->
  <path d="M256 80 C256 80 272 200 296 232 C328 272 432 256 432 256 C432 256 328 240 296 280 C272 312 256 432 256 432 C256 432 240 312 216 280 C184 240 80 256 80 256 C80 256 184 272 216 232 C240 200 256 80 256 80Z" fill="url(#star)"/>
</svg>
